<?xml version="1.0" standalone="no"?>
<!DOCTYPE svg PUBLIC "-//W3C//DTD SVG 20010904//EN"
 "http://www.w3.org/TR/2001/REC-SVG-20010904/DTD/svg10.dtd">
<svg version="1.0" xmlns="http://www.w3.org/2000/svg"
 width="700.000000pt" height="700.000000pt" viewBox="0 0 700.000000 700.000000"
 preserveAspectRatio="xMidYMid meet">
<metadata>
Created by potrace 1.14, written by Peter Selinger 2001-2017
</metadata>
<g transform="translate(0.000000,700.000000) scale(0.100000,-0.100000)"
fill="#000000" stroke="none">
<path d="M439 5238 c-1 -17 -1 -3471 0 -3480 1 -5 1378 -8 3061 -8 2441 0
3060 3 3061 13 1 16 1 3470 0 3480 -1 4 -1378 7 -3061 7 -2441 0 -3060 -3
-3061 -12z m2399 -655 c5 -8 8 -398 3 -423 -1 -3 -394 -5 -873 -4 l-873 0 -1
215 c0 118 3 216 7 219 4 3 395 5 869 5 617 -1 863 -4 868 -12z m3057 8 c8 -1
11 -107 11 -326 l0 -325 -25 -1 c-33 -1 -1054 -1 -1063 0 -6 1 -9 641 -3 651
2 4 1037 5 1080 1z m-2177 -1091 l0 -218 -1312 2 -1311 1 -1 210 c-1 116 1
213 2 217 2 3 593 6 1313 6 l1309 0 0 -218z m2178 -659 c7 -1 10 -67 9 -213
-1 -117 -3 -215 -4 -218 -2 -8 -1730 -5 -1738 4 -9 9 -11 419 -1 426 5 4 1696
5 1734 1z"/>
</g>
</svg>
